<?xml version="1.0" encoding="UTF-8" standalone="no"?>
<!-- Created with Inkscape (http://www.inkscape.org/) -->

<svg
   width="122.04762mm"
   height="50.975697mm"
   viewBox="0 0 122.04762 50.975697"
   version="1.1"
   id="svg11249"
   inkscape:version="1.2.2 (b0a8486541, 2022-12-01)"
   sodipodi:docname="Logo of the U.S. Agency for Global Media.svg"
   xmlns:inkscape="http://www.inkscape.org/namespaces/inkscape"
   xmlns:sodipodi="http://sodipodi.sourceforge.net/DTD/sodipodi-0.dtd"
   xmlns="http://www.w3.org/2000/svg"
   xmlns:svg="http://www.w3.org/2000/svg">
  <sodipodi:namedview
     id="namedview11251"
     pagecolor="#ffffff"
     bordercolor="#000000"
     borderopacity="0.25"
     inkscape:showpageshadow="2"
     inkscape:pageopacity="0.0"
     inkscape:pagecheckerboard="0"
     inkscape:deskcolor="#d1d1d1"
     inkscape:document-units="mm"
     showgrid="false"
     inkscape:zoom="0.84495118"
     inkscape:cx="164.50654"
     inkscape:cy="136.10254"
     inkscape:window-width="1920"
     inkscape:window-height="1011"
     inkscape:window-x="0"
     inkscape:window-y="0"
     inkscape:window-maximized="1"
     inkscape:current-layer="layer1" />
  <defs
     id="defs11246">
    <clipPath
       clipPathUnits="userSpaceOnUse"
       id="clipPath10202">
      <path
         d="m 24,466.207 h 113.793 v 47.386 H 24 Z"
         id="path10200" />
    </clipPath>
  </defs>
  <g
     inkscape:label="Layer 1"
     inkscape:groupmode="layer"
     id="layer1"
     transform="translate(-73.462445,-110.32033)">
    <g
       id="g10196"
       transform="matrix(1.0757612,0,0,-1.0757612,47.277697,662.82364)">
      <g
         id="g10198"
         clip-path="url(#clipPath10202)">
        <g
           id="g10204"
           transform="translate(30.2516,485.4874)">
          <path
             d="M 0,0 C -0.365,4.857 0.432,9.626 2.335,14.193 H 0.619 C -1.957,9.889 -2.804,4.692 -2.436,-0.207 -2.141,-4.13 -0.785,-8.061 1.376,-11.429 H 3.205 C 1.39,-7.842 0.302,-4.005 0,0"
             style="fill:#b51b1d;fill-opacity:1;fill-rule:nonzero;stroke:none"
             id="path10206" />
        </g>
        <g
           id="g10208"
           transform="translate(43.3457,513.5929)">
          <path
             d="m 0,0 c -8.202,-6.565 -11.613,-17.116 -11.141,-27.147 0.107,-2.269 0.589,-4.765 1.579,-6.74 h 2.489 c -0.569,2.248 -0.928,4.561 -1.038,6.901 C -8.596,-16.675 -5.34,-6.74 2.105,0 Z"
             style="fill:#b51b1d;fill-opacity:1;fill-rule:nonzero;stroke:none"
             id="path10210" />
        </g>
        <g
           id="g10212"
           transform="translate(41.0584,486.9162)">
          <path
             d="m 0,0 c -0.242,5.148 0.469,10.299 2.032,14.968 h -2.876 c -2.253,-4.84 -3.015,-10.001 -2.772,-15.16 0.35,-7.434 2.778,-15.043 5.887,-20.517 H 5.592 C 2.875,-15.824 0.362,-7.685 0,0"
             style="fill:#b51b1d;fill-opacity:1;fill-rule:nonzero;stroke:none"
             id="path10214" />
        </g>
        <g
           id="g10216"
           transform="translate(48.3386,497.3384)">
          <path
             d="m 0,0 h -3.503 c -0.967,-3.261 -1.234,-6.812 -1.263,-10.288 -0.033,-3.877 0.94,-9.201 2.19,-11.477 h 3.279 c -1.416,4.434 -1.727,7.887 -1.727,12.398 0,3.747 0.389,7.401 1.024,9.367"
             style="fill:#b51b1d;fill-opacity:1;fill-rule:nonzero;stroke:none"
             id="path10218" />
        </g>
        <g
           id="g10220"
           transform="translate(34.6446,508.0233)">
          <path
             d="m 0,0 h -1.132 c -5.503,-5.553 -9.513,-14.27 -9.149,-21.995 0.321,-6.816 3.096,-13.208 8.281,-18.582 h 1.749 c -5.001,5.342 -7.876,11.786 -8.201,18.68 C -8.819,-14.1 -5.813,-6.376 0,0"
             style="fill:#b51b1d;fill-opacity:1;fill-rule:nonzero;stroke:none"
             id="path10222" />
        </g>
        <g
           id="g10224"
           transform="translate(58.8195,495.3381)">
          <path
             d="M 0,0 V -0.603 L -0.775,-0.737 V -4.69 c 0,-0.523 0.149,-0.919 0.447,-1.191 0.298,-0.27 0.69,-0.406 1.179,-0.406 0.512,0 0.926,0.135 1.24,0.404 0.313,0.27 0.47,0.667 0.47,1.193 v 3.953 L 1.786,-0.603 V 0 H 3.497 4.271 V -0.603 L 3.497,-0.737 V -4.69 c 0,-0.751 -0.245,-1.327 -0.734,-1.727 -0.49,-0.401 -1.127,-0.602 -1.912,-0.602 -0.764,0 -1.382,0.201 -1.854,0.602 -0.472,0.4 -0.708,0.976 -0.708,1.727 v 3.953 l -0.774,0.134 V 0 h 0.774 z"
             style="fill:#4f4c4d;fill-opacity:1;fill-rule:nonzero;stroke:none"
             id="path10226" />
        </g>
        <path
           d="m 64.06,488.42 h -0.936 v 0.96 h 0.936 z"
           style="fill:#4f4c4d;fill-opacity:1;fill-rule:nonzero;stroke:none"
           id="path10228" />
        <g
           id="g10230"
           transform="translate(70.079,493.2947)">
          <path
             d="m 0,0 h -0.708 l -0.176,0.988 c -0.142,0.121 -0.332,0.221 -0.57,0.3 -0.238,0.079 -0.513,0.119 -0.827,0.119 -0.497,0 -0.879,-0.106 -1.145,-0.317 -0.266,-0.21 -0.399,-0.485 -0.399,-0.824 0,-0.301 0.136,-0.552 0.406,-0.753 0.271,-0.201 0.709,-0.377 1.314,-0.53 0.728,-0.18 1.282,-0.447 1.661,-0.798 0.378,-0.352 0.568,-0.787 0.568,-1.307 0,-0.557 -0.228,-1.006 -0.682,-1.345 -0.455,-0.339 -1.05,-0.508 -1.784,-0.508 -0.533,0 -1.006,0.087 -1.419,0.261 -0.413,0.174 -0.75,0.402 -1.009,0.685 v 1.287 h 0.703 l 0.18,-0.993 c 0.181,-0.149 0.396,-0.271 0.646,-0.366 0.25,-0.095 0.55,-0.142 0.899,-0.142 0.471,0 0.844,0.099 1.118,0.299 0.274,0.2 0.411,0.471 0.411,0.813 0,0.317 -0.118,0.582 -0.356,0.796 -0.237,0.213 -0.657,0.393 -1.259,0.539 -0.732,0.174 -1.304,0.431 -1.716,0.77 -0.411,0.339 -0.617,0.765 -0.617,1.278 0,0.542 0.229,0.992 0.689,1.352 0.459,0.359 1.056,0.539 1.791,0.539 0.485,0 0.926,-0.083 1.324,-0.249 C -0.56,1.727 -0.241,1.525 0,1.288 Z"
             style="fill:#4f4c4d;fill-opacity:1;fill-rule:nonzero;stroke:none"
             id="path10232" />
        </g>
        <path
           d="m 71.84,488.42 h -0.936 v 0.96 h 0.936 z"
           style="fill:#4f4c4d;fill-opacity:1;fill-rule:nonzero;stroke:none"
           id="path10234" />
        <g
           id="g10236"
           transform="translate(77.5811,491.166)">
          <path
             d="M 0,0 H 2.195 L 1.121,2.97 H 1.093 Z m -2.219,-2.148 0.513,0.072 2.419,6.248 H 1.516 L 3.892,-2.076 4.4,-2.148 V -2.747 H 2.414 v 0.599 l 0.523,0.09 -0.457,1.274 h -2.77 l -0.47,-1.274 0.523,-0.09 v -0.599 h -1.982 z"
             style="fill:#4f4c4d;fill-opacity:1;fill-rule:nonzero;stroke:none"
             id="path10238" />
        </g>
        <g
           id="g10240"
           transform="translate(87.7899,489.2034)">
          <path
             d="m 0,0 c -0.203,-0.212 -0.502,-0.413 -0.898,-0.601 -0.396,-0.189 -0.911,-0.283 -1.544,-0.283 -0.925,0 -1.68,0.325 -2.265,0.974 -0.584,0.65 -0.876,1.492 -0.876,2.528 v 0.114 c 0,1.043 0.289,1.887 0.867,2.533 0.578,0.647 1.347,0.97 2.307,0.97 0.513,0 0.964,-0.08 1.352,-0.241 0.388,-0.159 0.715,-0.371 0.981,-0.634 V 4.106 H -0.732 L -0.96,5.061 c -0.155,0.126 -0.342,0.231 -0.563,0.313 -0.22,0.083 -0.484,0.124 -0.791,0.124 -0.748,0 -1.323,-0.256 -1.728,-0.767 C -4.445,4.219 -4.647,3.556 -4.647,2.742 V 2.618 c 0,-0.826 0.196,-1.495 0.587,-2.005 0.391,-0.51 0.93,-0.765 1.618,-0.765 0.376,0 0.686,0.04 0.926,0.119 0.241,0.079 0.434,0.166 0.58,0.261 V 1.744 L -2.072,1.792 V 2.481 H 0 Z"
             style="fill:#4f4c4d;fill-opacity:1;fill-rule:nonzero;stroke:none"
             id="path10242" />
        </g>
        <g
           id="g10244"
           transform="translate(88.9704,488.4194)">
          <path
             d="m 0,0 v 0.598 l 0.775,0.134 v 5.45 L 0,6.315 V 6.919 H 5.312 V 5.256 H 4.509 L 4.433,6.182 H 1.71 V 3.944 H 4.357 V 3.208 H 1.71 V 0.732 H 4.49 L 4.566,1.659 H 5.365 V 0 Z"
             style="fill:#4f4c4d;fill-opacity:1;fill-rule:nonzero;stroke:none"
             id="path10246" />
        </g>
        <g
           id="g10248"
           transform="translate(102.2603,495.3381)">
          <path
             d="M 0,0 V -0.603 L -0.774,-0.737 V -6.919 H -1.71 l -3.327,5.341 -0.028,-0.009 v -4.6 l 0.774,-0.133 v -0.599 h -2.485 v 0.599 l 0.775,0.133 v 5.45 l -0.775,0.134 V 0 h 0.775 0.936 l 3.326,-5.336 0.029,0.009 v 4.59 l -0.775,0.134 V 0 h 1.711 z"
             style="fill:#4f4c4d;fill-opacity:1;fill-rule:nonzero;stroke:none"
             id="path10250" />
        </g>
        <g
           id="g10252"
           transform="translate(111.6685,494.7346)">
          <path
             d="M 0,0 -0.746,-0.09 0.703,-2.913 2.152,-0.09 1.411,0 V 0.603 H 3.787 V 0 L 3.202,-0.09 1.15,-3.882 v -1.702 l 0.774,-0.133 v -0.598 h -2.48 v 0.598 l 0.775,0.133 v 1.773 L -1.796,-0.09 -2.376,0 V 0.603 H 0 Z"
             style="fill:#4f4c4d;fill-opacity:1;fill-rule:nonzero;stroke:none"
             id="path10254" />
        </g>
        <g
           id="g10256"
           transform="translate(118.9917,489.0179)">
          <path
             d="M 0,0 0.774,0.133 V 5.584 L 0,5.717 V 6.32 H 5.345 V 4.657 H 4.547 L 4.472,5.584 H 1.711 V 3.198 H 4.386 V 2.462 H 1.711 V 0.133 L 2.485,0 V -0.598 H 0 Z"
             style="fill:#4f4c4d;fill-opacity:1;fill-rule:nonzero;stroke:none"
             id="path10258" />
        </g>
        <g
           id="g10260"
           transform="translate(130.127,491.9357)">
          <path
             d="M 0,0 C 0,0.805 -0.193,1.461 -0.578,1.969 -0.963,2.478 -1.496,2.733 -2.177,2.733 -2.829,2.733 -3.338,2.477 -3.704,1.967 -4.07,1.457 -4.253,0.802 -4.253,0 v -0.109 c 0,-0.811 0.183,-1.471 0.549,-1.979 0.366,-0.509 0.875,-0.763 1.527,-0.763 0.691,0 1.227,0.253 1.606,0.76 C -0.19,-1.583 0,-0.923 0,-0.109 Z m 0.936,-0.109 c 0,-1.007 -0.289,-1.844 -0.867,-2.509 -0.578,-0.665 -1.327,-0.998 -2.246,-0.998 -0.893,0 -1.618,0.333 -2.176,0.998 -0.557,0.665 -0.836,1.502 -0.836,2.509 v 0.1 c 0,1.004 0.279,1.84 0.836,2.508 0.558,0.669 1.283,1.003 2.176,1.003 0.919,0 1.668,-0.334 2.246,-1.003 0.578,-0.668 0.867,-1.504 0.867,-2.508 z"
             style="fill:#4f4c4d;fill-opacity:1;fill-rule:nonzero;stroke:none"
             id="path10262" />
        </g>
        <g
           id="g10264"
           transform="translate(133.574,492.2446)">
          <path
             d="m 0,0 h 1.23 c 0.523,0 0.903,0.1 1.141,0.299 0.238,0.2 0.356,0.492 0.356,0.875 0,0.364 -0.113,0.652 -0.342,0.864 C 2.157,2.251 1.804,2.357 1.325,2.357 H 0 Z M 1.325,3.088 C 2.08,3.088 2.657,2.922 3.06,2.587 3.462,2.253 3.663,1.779 3.663,1.165 3.663,0.829 3.57,0.531 3.383,0.271 3.196,0.011 2.928,-0.193 2.58,-0.342 2.957,-0.466 3.228,-0.666 3.395,-0.946 3.561,-1.224 3.644,-1.567 3.644,-1.976 v -0.556 c 0,-0.213 0.028,-0.37 0.081,-0.471 0.054,-0.101 0.143,-0.161 0.266,-0.18 L 4.22,-3.212 V -3.825 H 3.715 c -0.363,0 -0.623,0.127 -0.776,0.38 -0.154,0.253 -0.23,0.561 -0.23,0.922 v 0.537 c 0,0.377 -0.11,0.679 -0.329,0.907 -0.218,0.229 -0.511,0.343 -0.879,0.343 H 0 v -2.358 l 0.774,-0.133 v -0.598 h -2.485 v 0.598 l 0.775,0.133 V 2.357 L -1.711,2.49 v 0.598 h 0.775 z"
             style="fill:#4f4c4d;fill-opacity:1;fill-rule:nonzero;stroke:none"
             id="path10266" />
        </g>
        <g
           id="g10268"
           transform="translate(61.8938,478.0124)">
          <path
             d="m 0,0 c -0.203,-0.212 -0.502,-0.413 -0.898,-0.601 -0.396,-0.189 -0.911,-0.283 -1.544,-0.283 -0.926,0 -1.68,0.325 -2.265,0.974 -0.584,0.65 -0.876,1.492 -0.876,2.528 v 0.114 c 0,1.042 0.289,1.887 0.867,2.532 0.578,0.647 1.347,0.97 2.307,0.97 0.513,0 0.964,-0.08 1.352,-0.24 0.388,-0.16 0.715,-0.371 0.981,-0.634 V 4.105 H -0.732 L -0.96,5.061 C -1.115,5.187 -1.303,5.292 -1.523,5.374 -1.743,5.456 -2.007,5.498 -2.314,5.498 -3.062,5.498 -3.637,5.241 -4.042,4.73 -4.445,4.219 -4.647,3.556 -4.647,2.742 V 2.618 c 0,-0.826 0.196,-1.495 0.587,-2.005 0.391,-0.51 0.93,-0.765 1.618,-0.765 0.376,0 0.686,0.04 0.926,0.119 0.241,0.079 0.434,0.166 0.58,0.261 V 1.744 L -2.072,1.792 V 2.48 H 0 Z"
             style="fill:#4f4c4d;fill-opacity:1;fill-rule:nonzero;stroke:none"
             id="path10270" />
        </g>
        <g
           id="g10272"
           transform="translate(63.0743,477.2285)">
          <path
             d="M 0,0 V 0.598 L 0.775,0.732 V 6.181 L 0,6.315 V 6.918 H 0.775 1.711 2.485 V 6.315 L 1.711,6.181 V 0.732 H 4.115 L 4.186,1.525 H 4.984 V 0 Z"
             style="fill:#4f4c4d;fill-opacity:1;fill-rule:nonzero;stroke:none"
             id="path10274" />
        </g>
        <g
           id="g10276"
           transform="translate(73.7867,480.7447)">
          <path
             d="M 0,0 C 0,0.805 -0.192,1.461 -0.578,1.969 -0.963,2.477 -1.496,2.732 -2.177,2.732 -2.829,2.732 -3.338,2.477 -3.704,1.967 -4.07,1.457 -4.253,0.801 -4.253,0 v -0.109 c 0,-0.811 0.183,-1.471 0.549,-1.979 0.366,-0.509 0.875,-0.763 1.527,-0.763 0.691,0 1.227,0.253 1.607,0.76 0.38,0.507 0.57,1.167 0.57,1.982 z m 0.936,-0.109 c 0,-1.008 -0.289,-1.844 -0.867,-2.509 -0.578,-0.665 -1.327,-0.998 -2.246,-0.998 -0.893,0 -1.618,0.333 -2.176,0.998 -0.557,0.665 -0.836,1.501 -0.836,2.509 v 0.099 c 0,1.005 0.279,1.841 0.836,2.509 0.558,0.668 1.283,1.002 2.176,1.002 0.919,0 1.668,-0.334 2.246,-1.002 C 0.647,1.831 0.936,0.995 0.936,-0.01 Z"
             style="fill:#4f4c4d;fill-opacity:1;fill-rule:nonzero;stroke:none"
             id="path10278" />
        </g>
        <g
           id="g10280"
           transform="translate(77.2342,480.4739)">
          <path
             d="m 0,0 v -2.514 h 1.615 c 0.428,0 0.76,0.106 0.996,0.316 0.236,0.211 0.354,0.509 0.354,0.896 0,0.405 -0.099,0.724 -0.297,0.955 C 2.47,-0.116 2.166,0 1.758,0 Z M 0,0.732 H 1.563 C 1.899,0.741 2.17,0.841 2.378,1.031 2.585,1.221 2.689,1.484 2.689,1.82 2.689,2.193 2.572,2.473 2.338,2.658 2.103,2.844 1.764,2.936 1.321,2.936 H 0 Z M 1.321,3.673 C 2.043,3.673 2.608,3.517 3.015,3.204 3.422,2.892 3.625,2.425 3.625,1.801 3.625,1.494 3.528,1.219 3.333,0.976 3.138,0.734 2.881,0.554 2.561,0.437 2.976,0.348 3.304,0.144 3.544,-0.176 3.785,-0.496 3.906,-0.868 3.906,-1.293 3.906,-1.927 3.699,-2.41 3.288,-2.744 2.876,-3.078 2.319,-3.245 1.615,-3.245 h -3.326 v 0.598 l 0.775,0.133 v 5.45 l -0.775,0.133 v 0.604 h 0.775 z"
             style="fill:#4f4c4d;fill-opacity:1;fill-rule:nonzero;stroke:none"
             id="path10282" />
        </g>
        <g
           id="g10284"
           transform="translate(84.1543,479.975)">
          <path
             d="M 0,0 H 2.195 L 1.121,2.969 H 1.093 Z m -2.219,-2.148 0.513,0.072 2.419,6.248 H 1.516 L 3.892,-2.076 4.4,-2.148 V -2.747 H 2.414 v 0.599 l 0.523,0.09 -0.457,1.274 h -2.77 l -0.47,-1.274 0.523,-0.09 v -0.599 h -1.982 z"
             style="fill:#4f4c4d;fill-opacity:1;fill-rule:nonzero;stroke:none"
             id="path10286" />
        </g>
        <g
           id="g10288"
           transform="translate(89.2361,477.2285)">
          <path
             d="M 0,0 V 0.598 L 0.774,0.732 V 6.181 L 0,6.315 V 6.918 H 0.774 1.711 2.485 V 6.315 L 1.711,6.181 V 0.732 H 4.114 L 4.185,1.525 H 4.984 V 0 Z"
             style="fill:#4f4c4d;fill-opacity:1;fill-rule:nonzero;stroke:none"
             id="path10290" />
        </g>
        <g
           id="g10292"
           transform="translate(104.3074,482.7688)">
          <path
             d="M 0,0 -0.023,0.005 -2.262,-5.54 H -2.884 L -5.122,0 -5.146,-0.005 -5.051,-2.804 v -2.005 l 0.774,-0.133 V -5.54 h -2.484 v 0.598 l 0.774,0.133 v 5.45 l -0.774,0.133 v 0.604 h 0.774 1.198 l 2.204,-5.621 h 0.029 l 2.2,5.621 H 1.62 V 0.774 L 0.846,0.641 v -5.45 L 1.62,-4.942 V -5.54 h -2.485 v 0.598 l 0.775,0.133 v 2.005 z"
             style="fill:#4f4c4d;fill-opacity:1;fill-rule:nonzero;stroke:none"
             id="path10294" />
        </g>
        <g
           id="g10296"
           transform="translate(106.9066,477.2285)">
          <path
             d="M 0,0 V 0.598 L 0.774,0.732 V 6.181 L 0,6.315 V 6.918 H 5.312 V 5.256 H 4.509 L 4.434,6.181 H 1.711 V 3.944 H 4.357 V 3.207 H 1.711 V 0.732 H 4.49 L 4.567,1.658 H 5.365 V 0 Z"
             style="fill:#4f4c4d;fill-opacity:1;fill-rule:nonzero;stroke:none"
             id="path10298" />
        </g>
        <g
           id="g10300"
           transform="translate(115.0141,483.41)">
          <path
             d="m 0,0 v -5.45 h 1.188 c 0.64,0 1.144,0.211 1.513,0.632 0.369,0.422 0.554,0.962 0.554,1.62 v 0.956 c 0,0.652 -0.185,1.189 -0.554,1.61 C 2.332,-0.211 1.828,0 1.188,0 Z m 1.188,0.736 c 0.903,0 1.629,-0.277 2.178,-0.833 0.55,-0.556 0.825,-1.274 0.825,-2.155 V -3.198 C 4.191,-4.081 3.916,-4.8 3.366,-5.353 2.817,-5.905 2.091,-6.181 1.188,-6.181 h -2.899 v 0.598 l 0.775,0.133 V 0 l -0.775,0.133 v 0.603 h 0.775 z"
             style="fill:#4f4c4d;fill-opacity:1;fill-rule:nonzero;stroke:none"
             id="path10302" />
        </g>
        <g
           id="g10304"
           transform="translate(120.1387,483.5432)">
          <path
             d="M 0,0 V 0.603 H 2.485 V 0 L 1.71,-0.133 v -5.45 L 2.485,-5.716 V -6.315 H 0 v 0.599 l 0.774,0.133 v 5.45 z"
             style="fill:#4f4c4d;fill-opacity:1;fill-rule:nonzero;stroke:none"
             id="path10306" />
        </g>
        <g
           id="g10308"
           transform="translate(125.7167,479.975)">
          <path
             d="M 0,0 H 2.195 L 1.121,2.969 H 1.093 Z m -2.219,-2.148 0.513,0.072 2.419,6.248 H 1.516 L 3.891,-2.076 4.4,-2.148 V -2.747 H 2.414 v 0.599 l 0.523,0.09 -0.457,1.274 h -2.77 l -0.47,-1.274 0.522,-0.09 v -0.599 h -1.981 z"
             style="fill:#4f4c4d;fill-opacity:1;fill-rule:nonzero;stroke:none"
             id="path10310" />
        </g>
        <g
           id="g10312"
           transform="translate(108.3588,493.207)">
          <path
             d="m 0,0 h -0.675 l -0.179,0.978 c -0.155,0.148 -0.347,0.27 -0.573,0.365 -0.226,0.095 -0.497,0.142 -0.811,0.142 -0.734,0 -1.298,-0.261 -1.693,-0.78 -0.395,-0.521 -0.592,-1.182 -0.592,-1.982 v -0.109 c 0,-0.8 0.193,-1.463 0.58,-1.986 0.387,-0.523 0.923,-0.785 1.608,-0.785 0.321,0 0.612,0.049 0.874,0.147 0.262,0.098 0.464,0.218 0.607,0.36 l 0.179,0.978 H 0 v -1.229 c -0.204,-0.256 -0.51,-0.485 -0.917,-0.686 -0.408,-0.2 -0.88,-0.301 -1.418,-0.301 -0.918,0 -1.672,0.332 -2.261,0.997 -0.589,0.664 -0.883,1.499 -0.883,2.505 v 0.1 c 0,1.012 0.29,1.85 0.869,2.513 0.579,0.662 1.337,0.994 2.275,0.994 0.538,0 1.01,-0.103 1.418,-0.306 C -0.51,1.71 -0.204,1.481 0,1.229 Z"
             style="fill:#4f4c4d;fill-opacity:1;fill-rule:nonzero;stroke:none"
             id="path10314" />
        </g>
      </g>
    </g>
  </g>
</svg>
